<?xml version="1.0" encoding="UTF-8"?>
<svg id="Layer_1" data-name="Layer 1" xmlns="http://www.w3.org/2000/svg" xmlns:xlink="http://www.w3.org/1999/xlink" version="1.1" viewBox="0 0 144 153">
  <defs>
    <style>
      .cls-1 {
        clip-path: url(#clippath);
      }

      .cls-2, .cls-3, .cls-4, .cls-5, .cls-6, .cls-7 {
        stroke-width: 0px;
      }

      .cls-2, .cls-8, .cls-9, .cls-10, .cls-11, .cls-12 {
        fill: none;
      }

      .cls-3 {
        fill: #4397a1;
      }

      .cls-8 {
        stroke: url(#New_Gradient_Swatch_1-3);
      }

      .cls-8, .cls-9, .cls-10, .cls-11, .cls-12 {
        stroke-linecap: round;
        stroke-miterlimit: 10;
        stroke-width: 1.8px;
      }

      .cls-9 {
        stroke: url(#New_Gradient_Swatch_1-5);
      }

      .cls-10 {
        stroke: url(#New_Gradient_Swatch_1-2);
      }

      .cls-11 {
        stroke: url(#New_Gradient_Swatch_1-4);
      }

      .cls-4 {
        fill: #d09738;
      }

      .cls-12 {
        stroke: url(#New_Gradient_Swatch_1);
      }

      .cls-5 {
        fill: #1b75bb;
      }

      .cls-13 {
        opacity: .6;
      }

      .cls-6 {
        fill: #fff;
      }

      .cls-7 {
        fill: #bb5935;
      }
    </style>
    <clipPath id="clippath">
      <path class="cls-2" d="M72.4,149.8L8.4,113.9V39.5L72,3.1l63.6,36.7v73.7l-63.3,36.3Z"/>
    </clipPath>
    <linearGradient id="New_Gradient_Swatch_1" data-name="New Gradient Swatch 1" x1="-2.6" y1="95.7" x2="138" y2="95.7" gradientUnits="userSpaceOnUse">
      <stop offset="0" stop-color="#fff" stop-opacity="0"/>
      <stop offset=".1" stop-color="#fff" stop-opacity=".4"/>
      <stop offset=".5" stop-color="#fff"/>
    </linearGradient>
    <linearGradient id="New_Gradient_Swatch_1-2" data-name="New Gradient Swatch 1" y1="91" x2="124.3" y2="91" xlink:href="#New_Gradient_Swatch_1"/>
    <linearGradient id="New_Gradient_Swatch_1-3" data-name="New Gradient Swatch 1" y1="95.6" x2="117" y2="95.6" xlink:href="#New_Gradient_Swatch_1"/>
    <linearGradient id="New_Gradient_Swatch_1-4" data-name="New Gradient Swatch 1" y1="101.1" x2="113" y2="101.1" xlink:href="#New_Gradient_Swatch_1"/>
    <linearGradient id="New_Gradient_Swatch_1-5" data-name="New Gradient Swatch 1" y1="107.8" x2="113" y2="107.8" xlink:href="#New_Gradient_Swatch_1"/>
  </defs>
  <g class="cls-1">
    <g>
      <path class="cls-4" d="M96.8,95.3c13.6,11.7,18.9,29.5,15.4,45.9,19.7,14.1,47.3,11.1,63.5-7.6,17.1-19.8,14.9-49.8-4.9-66.9-19.8-17.1-49.8-14.9-66.9,4.9-5.4,6.2-8.8,13.5-10.5,21,1.2.8,2.3,1.7,3.4,2.7Z"/>
      <path class="cls-3" d="M91,94.2c15.5,9.2,23.8,25.8,23.2,42.5,21.9,10.5,48.6,2.7,61.2-18.6,13.4-22.5,6-51.7-16.6-65-22.5-13.4-51.7-6-65,16.6-4.2,7.1-6.4,14.8-6.6,22.5,1.3.6,2.6,1.3,3.8,2Z"/>
      <path class="cls-4" d="M118.3,53.3c-2.9,17.7-15.3,31.6-31.1,37.1-1.7,24.2,15.2,46.2,39.7,50.2,25.9,4.2,50.3-13.3,54.5-39.2,4.2-25.9-13.3-50.3-39.2-54.5-8.1-1.3-16.1-.5-23.4,2-.1,1.4-.3,2.9-.5,4.3Z"/>
    </g>
    <g>
      <path class="cls-3" d="M103.2,111.9c-18,.6-33.9-8.8-42.5-23.3-24.1,3-42.3,24-41.5,48.7.9,26.2,22.9,46.7,49.1,45.8,26.2-.9,46.7-22.9,45.8-49.1-.3-8.2-2.6-15.9-6.6-22.5-1.4.2-2.9.3-4.3.4Z"/>
      <path class="cls-4" d="M109.1,111.1c-17.7,2.8-34.8-4.6-45-17.9-23.5,6-39,29-35.1,53.4,4.1,25.9,28.4,43.5,54.3,39.4,25.9-4.1,43.5-28.4,39.4-54.3-1.3-8.1-4.6-15.5-9.3-21.5-1.4.4-2.8.7-4.3.9Z"/>
      <path class="cls-7" d="M114.9,158.7c-9.7-15.2-9.6-33.7-1.5-48.4-14.8-19.2-42.1-24.3-63-11s-28.6,43.4-14.5,65.5c14.1,22.1,43.4,28.6,65.5,14.5s12.3-10.4,16.1-17.1c-.9-1.1-1.7-2.3-2.5-3.6Z"/>
    </g>
    <g>
      <path class="cls-4" d="M24.6,115.5c9.3,7.6,20,12.4,31,14.4,0,0,0-.1.1-.2,19.2,3.6,39.8-1,56.2-14.3,5.4-4.4,9.9-9.4,13.6-14.9,0,0,0,0,.1,0,18.4-27.2,20.9-66.1-7.9-87.1,0,0,0,0,0-.1C93.2-12,52.8-14.7,24.8,8,10.6,19.5,2.2,35.5-.2,52.3c0,0,0,0,0,0-.1,1-.3,2-.4,3,0,.2,0,.5,0,.7,0,.8-.1,1.6-.2,2.4,0,.4,0,.9,0,1.3,0,.6,0,1.2,0,1.9,0,.6,0,1.2,0,1.9,0,.4,0,.9,0,1.3,0,.8,0,1.6.2,2.4,0,.2,0,.5,0,.7,0,1,.2,2,.3,3,0,0,0,0,0,0,.2,1.4.5,2.9.7,4.3,0,.1,0,.3,0,.4,3.1,15,11.2,29.1,24,39.6Z"/>
      <path class="cls-3" d="M2.1,117.4c9.3,7.6,28.6,8.8,39.6,10.8,0,0,0-.1.1-.2,19.2,3.6,39.8-1,56.2-14.3,5.4-4.4,9.9-9.4,13.6-14.9,0,0,0,0,.1,0,18.4-27.2,15-63.7-7.9-87.1,0,0,0,0,0-.1C79.3-13.6,38.9-16.4,10.9,6.3-3.3,17.8-11.7,33.8-14,50.6c0,0,0,0,0,0-.1,1-.3,2-.4,3,0,.2,0,.5,0,.7,0,.8-.1,1.6-.2,2.4,0,.4,0,.9,0,1.3,0,.6,0,1.2,0,1.9,0,.6,0,1.2,0,1.9,0,.4,0,.9,0,1.3,0,.8,0,1.6.2,2.4,0,.2,0,.5,0,.7,0,1,.2,2,.3,3,0,0,0,0,0,0,.2,1.4.5,2.9.7,4.3,0,.1,0,.3,0,.4,3.1,15,2.5,32.7,15.4,43.2Z"/>
    </g>
    <g class="cls-13">
      <path class="cls-12" d="M137.1,94c.6.3-54.4,28.2-67.4,25.8-7.9-1.5-8.3-12.5-8.3-12.5v-26.5c0-9-9.6-9.4-9.6-9.4H-1.7"/>
      <path class="cls-10" d="M-1.7,79h51.9s8.3-.5,11.2,5.5c1.8,3.7,7.2,7.8,10.9,10.2,12.9,8.3,39.3,10.5,51.1,6.3"/>
      <path class="cls-8" d="M-1.7,86.5h51.9s7.5,0,11.2,5.5c3.7,5.5,8.7,7.8,10.6,8.7,8.5,4.2,27.6,4.8,44.1,3.3"/>
      <path class="cls-11" d="M-1.7,93.9h51.9s7.5,0,11.2,5.5c3.7,5.5,8.7,7.2,11.1,7.8,9.2,2.2,23.2,1.1,39.6-2.2"/>
      <path class="cls-9" d="M-1.7,101.8h51.9s7.5,0,11.2,5.5c3.7,5.5,8.9,6.3,11.1,6.4,17.4.7,39.6-8.7,39.6-8.7"/>
    </g>
    <path class="cls-7" d="M93.7,90.4l-18.4.2c-1.7,0-3-1.3-3-3v-18.2c0-1.5,1.2-2.8,2.8-2.8h18.2c1.8,0,3.2,1.5,3.2,3.3v17.8c0,1.5-1.2,2.7-2.7,2.7Z"/>
    <path class="cls-4" d="M42.6,98.4l-17.9.3c-1.9,0-3.4-1.5-3.4-3.4v-16.9c0-2.2,1.8-4,4-4h17.3c1.6,0,2.9,1.3,2.9,2.9v18.2c0,1.6-1.3,2.9-2.9,2.9Z"/>
    <path class="cls-5" d="M57,105h18.9c1.7,0,3.2,1.4,3.2,3.2v18.2c0,1.9-1.5,3.4-3.4,3.4h-18.5c-1.7,0-3.1-1.4-3.1-3.1v-18.7c0-1.7,1.4-3,3-3Z"/>
    <g>
      <g>
        <path class="cls-6" d="M30.6,78.5l-1.8,1c-.2,0-.2.3-.1.5,0,.1.2.2.3.2s.1,0,.2,0l1.8-1c.2,0,.2-.3.1-.5,0-.2-.3-.2-.5-.1Z"/>
        <path class="cls-6" d="M31.9,79.1l1.8,1c0,0,.1,0,.2,0,.1,0,.2,0,.3-.2,0-.2,0-.4-.1-.5l-1.8-1c-.2,0-.4,0-.5.1,0,.2,0,.4.1.5Z"/>
        <path class="cls-6" d="M32.6,86.6c-.2,0-.4.2-.4.4v2.1c0,.2.2.4.4.4s.4-.2.4-.4v-2.1c0-.2-.2-.4-.4-.4Z"/>
        <path class="cls-6" d="M34.8,84.5l-1.7,1.1c-.2.1-.2.3-.1.5,0,.1.2.2.3.2s.1,0,.2,0l1.7-1.1c.2-.1.2-.3.1-.5-.1-.2-.3-.2-.5-.1Z"/>
        <path class="cls-6" d="M42.2,81.8c-.9,0-1.6.7-1.6,1.6s0,.3,0,.5l-2.1,1.2-3.3-1.9v-3.8l2-1.2c.3.3.7.5,1.2.5.9,0,1.6-.7,1.6-1.6s-.7-1.6-1.6-1.6-1.6.7-1.6,1.6,0,.3,0,.5l-2,1.2-3.6-2.1c-.1,0-.2,0-.4,0l-3.7,2.1c-.1,0-.2.2-.2.3v4.1l-1.9,1.2c-.3-.3-.7-.5-1.2-.5-.9,0-1.6.7-1.6,1.6s.7,1.6,1.6,1.6,1.6-.7,1.6-1.6,0-.3,0-.4l1.9-1.2,3.4,1.9v4.1c0,.1,0,.2.2.3l3.5,2v2.1c-.7.2-1.3.8-1.3,1.5s.7,1.6,1.6,1.6,1.6-.7,1.6-1.6-.5-1.4-1.2-1.5v-2.2l3.5-2c.1,0,.2-.2.2-.3v-4.2l1.9-1.2c.3.3.7.5,1.2.5.9,0,1.6-.7,1.6-1.6s-.7-1.6-1.6-1.6ZM38.6,76.2c.5,0,.9.4.9.9s-.4.9-.9.9-.9-.4-.9-.9.4-.9.9-.9ZM24.2,86.2c-.5,0-.9-.4-.9-.9s.4-.9.9-.9.9.4.9.9-.4.9-.9.9ZM28,79.3l3.4-1.9,3.4,1.9v3.9l-3.4,1.9-3.4-1.9v-3.9ZM35.9,95.8c0,.5-.4.9-.9.9s-.9-.4-.9-.9.4-.9.9-.9.9.4.9.9ZM35.1,91.5l-3.4-1.9v-3.9l3.4-1.9,3.2,1.9s0,0,.1.1v3.8l-3.4,1.9ZM42.2,84.2c-.5,0-.9-.4-.9-.9s.4-.9.9-.9.9.4.9.9-.4.9-.9.9Z"/>
      </g>
      <path class="cls-6" d="M42.3,99.1h-17.6c-2.1,0-3.8-1.7-3.8-3.8v-17.6c0-2.1,1.7-3.8,3.8-3.8h17.6c2.1,0,3.8,1.7,3.8,3.8v17.6c0,2.1-1.7,3.8-3.8,3.8ZM24.6,75c-1.4,0-2.6,1.2-2.6,2.6v17.6c0,1.4,1.2,2.6,2.6,2.6h17.6c1.4,0,2.6-1.2,2.6-2.6v-17.6c0-1.4-1.2-2.6-2.6-2.6h-17.6Z"/>
    </g>
    <g>
      <g>
        <path class="cls-6" d="M83.3,76.2h-8.5c-.2,0-.4-.2-.4-.4s.2-.4.4-.4h8.5c.9,0,1.6-.7,1.6-1.6s-.7-1.6-1.6-1.6-1.6.7-1.6,1.6-.2.4-.4.4-.4-.2-.4-.4c0-1.3,1.1-2.4,2.4-2.4s2.4,1.1,2.4,2.4-1.1,2.4-2.4,2.4Z"/>
        <path class="cls-6" d="M83.3,86.9c-1.3,0-2.4-1.1-2.4-2.4s.2-.4.4-.4.4.2.4.4c0,.9.7,1.6,1.6,1.6s1.6-.7,1.6-1.6-.7-1.6-1.6-1.6h-8.5c-.2,0-.4-.2-.4-.4s.2-.4.4-.4h8.5c1.3,0,2.4,1.1,2.4,2.4s-1.1,2.4-2.4,2.4Z"/>
        <path class="cls-6" d="M92.4,79.6h-20c-.2,0-.4-.2-.4-.4s.2-.4.4-.4h20c.9,0,1.6-.7,1.6-1.6s-.7-1.6-1.6-1.6-1.6.7-1.6,1.6-.2.4-.4.4-.4-.2-.4-.4c0-1.3,1.1-2.4,2.4-2.4s2.4,1.1,2.4,2.4-1.1,2.4-2.4,2.4Z"/>
        <circle class="cls-6" cx="77.8" cy="71.6" r=".7"/>
        <circle class="cls-6" cx="81.3" cy="69.3" r=".7"/>
        <circle class="cls-6" cx="86.4" cy="68.8" r=".7"/>
        <circle class="cls-6" cx="88.9" cy="72.9" r=".7"/>
        <circle class="cls-6" cx="92.4" cy="70.7" r=".7"/>
        <circle class="cls-6" cx="87.6" cy="81.6" r=".7"/>
        <circle class="cls-6" cx="93.6" cy="82.6" r=".7"/>
        <circle class="cls-6" cx="90.1" cy="84.2" r=".7"/>
        <circle class="cls-6" cx="92.1" cy="87" r=".7"/>
        <circle class="cls-6" cx="88.3" cy="88.3" r=".7"/>
        <circle class="cls-6" cx="83.7" cy="88.9" r=".7"/>
        <circle class="cls-6" cx="79.1" cy="87.7" r=".7"/>
      </g>
      <path class="cls-6" d="M93.2,91.4h-17.8c-2.1,0-3.8-1.7-3.8-3.8v-17.8c0-2.1,1.7-3.8,3.8-3.8h17.8c2.1,0,3.8,1.7,3.8,3.8v17.8c0,2.1-1.7,3.8-3.8,3.8ZM75.4,67.1c-1.5,0-2.7,1.2-2.7,2.7v17.8c0,1.5,1.2,2.7,2.7,2.7h17.8c1.5,0,2.7-1.2,2.7-2.7v-17.8c0-1.5-1.2-2.7-2.7-2.7h-17.8Z"/>
    </g>
    <g>
      <g>
        <path class="cls-6" d="M63.3,120.9c-.2,0-.3.2-.3.4l.6,7.9c0,.2.2.3.3.3s0,0,0,0c.2,0,.3-.2.3-.4l-.6-7.9c0-.2-.2-.3-.4-.3Z"/>
        <path class="cls-6" d="M72.7,124.2c-.2,0-.3.2-.3.4l.4,4.5c0,.2.2.3.3.3s0,0,0,0c.2,0,.3-.2.3-.4l-.4-4.5c0-.2-.2-.3-.4-.3Z"/>
        <path class="cls-6" d="M67.5,115.2c.5,0,.9-.1,1.4-.5.3-.2.4-.4.6-.7.1,0,.3,0,.5,0,.4,0,.8-.1,1.3-.5.7-.6.7-1.4.5-1.9.3-.3.8-.8.7-1.8,0-.4-.2-.8-.5-1-.4-.3-.9-.4-1.3-.4-.2-.4-.6-1-1.9-1.1-1.3,0-2,.6-2.3.9-.2,0-.3,0-.5,0-.1-.2-.4-.5-.9-.5s-.8.3-.9.5c-.3,0-.8,0-1.2.2-.5.2-.8.9-.9,1.2-.4,0-.7.1-1.1.4-.9.6-1.1,1.4-1.2,1.9-.8,0-1.2.5-1.3.7-.4,0-.6.1-.7.3-.2.2-.3.5-.4.7-.4.3-.7.9-.8,1.2-.5,0-.8.5-.8.9v.5c0,.4.3.8.7.9l-.9,11.9c0,.2.1.4.3.4,0,0,0,0,0,0,.2,0,.3-.1.3-.3l.9-11.9h5.4l.2,2.6c0,.2.2.3.3.3s0,0,0,0c.2,0,.3-.2.3-.4l-.2-2.6c.4-.1.7-.5.7-.9v-.5c0-.3-.1-.5-.3-.7.1-.1.2-.2.3-.4.2,0,.6,0,.9,0,.2,0,.6,0,.9,0,.4.3,1,.6,1.7.6ZM65,113.9c0,0-.2,0-.3,0-.1,0-.3,0-.4,0,0-.7-.3-1.3-.3-1.4,0-.2-.3-.2-.5-.1-.2,0-.2.3-.1.5,0,0,.3.6.1,1.2-.2.5-.7.6-.7.6,0,0,0,0,0,0h-3.2c-.2,0-.3.2-.3.3s.2.3.3.3h3.4c.1,0,.3.1.3.3v.5c0,.1-.1.3-.3.3h-6.2c-.1,0-.3-.1-.3-.3v-.5c0-.1.1-.3.3-.3h1.4c.2,0,.3-.2.3-.3s-.2-.3-.3-.3h-.8c.1-.2.3-.5.5-.6.1,0,.2-.2.2-.3,0,0,0-.3.1-.4,0,0,.2,0,.4,0,.2,0,.3,0,.4-.2,0,0,.2-.5.8-.5.8,0,1.1.3,1.1.3.1.1.3.1.5,0,.1-.1.1-.3,0-.5,0,0-.4-.4-1-.5,0-.3.2-.9.9-1.3,1.1-.7,2,0,2,0,.1.1.4.1.5,0,.1-.1.1-.4,0-.5-.2-.2-.5-.4-1-.5.1-.3.3-.6.5-.7.3-.2.9-.1,1-.1.1,0,.3,0,.3-.2,0,0,.2-.3.5-.3s.3.2.3.2c0,0,0,.2.2.2,0,0,.2,0,.3,0,0,0,.3,0,.6,0,.2,0,.3,0,.4-.2,0,0,.5-.9,1.8-.8,1.2,0,1.4.8,1.4.8,0,.2.2.3.4.3,0,0,.3,0,.7,0,.4.1.6.3.6.7,0,1-.5,1.3-.6,1.3,0,0-.2.1-.2.2s0,.2,0,.3c0,0,.4.8-.2,1.3-.5.4-.9.4-1.1.3.2-.8,0-1.5-.2-2,0-.2-.3-.3-.5-.2-.2,0-.3.3-.2.5,0,0,.2.4.2,1,0,.7-.2,1.2-.6,1.5-1.1.9-2.3-.1-2.4-.2-.1,0-.3-.1-.4,0-.1,0-.5,0-.7,0Z"/>
        <path class="cls-6" d="M67.9,110.6s0,0,0,0c.2,0,.3-.2.3-.4,0,0,0-.3,0-.4,0,0,0,0,.2,0s.2,0,.2,0c0,0,0,.3,0,.3,0,.2.1.4.3.4.2,0,.4-.1.4-.3,0,0,0-.5-.2-.9-.1-.1-.4-.3-.8-.3s-.6.2-.7.3c-.3.4-.2.9-.2.9,0,.2.2.3.3.3Z"/>
        <path class="cls-6" d="M66.4,113c.2,0,.4,0,.7-.3.3-.3.3-.6.3-.7,0-.5-.4-.8-.5-.8-.2-.1-.4,0-.5,0s0,.4,0,.5c0,0,.2.2.2.3,0,0,0,0-.1.2-.1.1-.2.1-.2.1-.1,0-.2-.1-.3-.2-.1-.2-.3-.2-.5,0-.2.1-.2.3,0,.5,0,0,.3.4.8.5,0,0,0,0,0,0Z"/>
        <path class="cls-6" d="M77.7,115.8c-.1-.5-.5-.8-.8-1,0-.5,0-1.1-.6-1.3-.5-.2-1,0-1.3.2-.2-.3-.6-.4-1-.5-.5-.1-.9,0-1.3.2-.4.3-.6.8-.7,1.1-.2,0-.6.1-.9.3-.2.1-.4.3-.4.4-.1,0-.3,0-.5,0-.3,0-.6.1-.8.4-.2.3-.3.7-.3,1-.3,0-.6,0-.9.3-.3.3-.4.7-.4,1-.2,0-.5.2-.8.4-.4.2-.5.7-.6,1h-.1c-.5,0-1,.4-1,1v.5c0,.4.3.8.7.9l-.6,7.6c0,.2.1.4.3.4,0,0,0,0,0,0,.2,0,.3-.1.3-.3l.6-7.6h5.4v1.5c0,.2.2.3.4.3s0,0,0,0c.2,0,.3-.2.3-.4v-1.5c.3-.1.6-.5.6-.9v-.5c0-.4-.2-.7-.6-.9,0,0,0-.1.1-.2.4.3,1.1.5,2.1.1,1-.4,1.3-.9,1.4-1.3.4-.1.7-.4.9-.8.3-.5.3-.9.2-1.3ZM66.2,120.2c0-.1.1-.3.3-.3h.3s0,0,.2,0,0,0,0,0c0,0,0,0,.1,0h5.1s0,0,0,0,0,0,0,0h.5c.1,0,.3.1.3.3v.5c0,.1-.1.3-.3.3h-6.2c-.1,0-.3-.1-.3-.3v-.5ZM76.9,116.8c-.2.3-.3.4-.6.5-.5.1-1-.3-1-.3-.2-.1-.4,0-.5,0-.1.2,0,.4,0,.5,0,0,.4.3.9.4-.1.2-.4.4-.9.6-1.1.4-1.6-.2-1.7-.2,0,0-.2-.1-.3-.1-.1,0-.2.1-.3.2,0,0-.2.5-.6.8h-.5c0-.1.1-.3.1-.4,0-.7-.3-1.2-.4-1.2-.1-.1-.3-.2-.5,0-.1.1-.2.3,0,.5,0,0,.2.3.2.6,0,.3-.4.5-.4.5,0,0,0,0,0,0h-3.3c0-.2,0-.3.2-.4.4-.3.9-.4.9-.4.2,0,.3-.2.2-.4,0,0,0-.4.2-.6.3-.2.7-.1.7-.1.1,0,.2,0,.3,0,0,0,.1-.2.1-.3,0-.2,0-.7.1-.9,0,0,.1-.1.3-.1.2,0,.3,0,.4.1.2.2.2.5.2.5,0,.2.2.3.3.3s.3-.2.3-.3,0-.5-.3-.8c0,0,.1-.2.3-.3.2-.1.6-.2.8-.2.2,0,.3-.1.3-.3,0,0,0-.6.4-.9.2-.1.4-.2.7-.1.3,0,.6.2.7.4.3.4.1.9.1,1,0,.2,0,.4.3.4.2,0,.4,0,.4-.3,0,0,.1-.5,0-1.1.2-.1.5-.2.7-.1.2,0,.2.6.1.7,0,.2,0,.3.2.4,0,0,.5.3.6.7,0,.2,0,.5-.1.8Z"/>
        <path class="cls-6" d="M73.3,115.5c-.4,0-.7.2-.8.3-.3.3-.2.7-.2.7,0,.2.2.3.4.3.2,0,.3-.2.3-.4,0,0,0-.1,0-.2,0,0,.1,0,.3,0s.2,0,.2,0c0,0,0,.1,0,.2,0,.2,0,.4.3.4,0,0,0,0,0,0,.2,0,.3-.1.3-.3,0,0,0-.4-.2-.7-.1-.1-.3-.3-.8-.3Z"/>
      </g>
      <path class="cls-6" d="M75.7,130.5h-18.5c-2.2,0-3.9-1.8-3.9-3.9v-18.5c0-2.2,1.8-3.9,3.9-3.9h18.5c2.2,0,3.9,1.8,3.9,3.9v18.5c0,2.2-1.8,3.9-3.9,3.9ZM57.3,105.4c-1.5,0-2.8,1.2-2.8,2.8v18.5c0,1.5,1.2,2.8,2.8,2.8h18.5c1.5,0,2.8-1.2,2.8-2.8v-18.5c0-1.5-1.2-2.8-2.8-2.8h-18.5Z"/>
    </g>
  </g>
  <g>
    <path class="cls-6" d="M20.5,55.9c0-.7,0-2,0-3.2v-12.4h3.3v6.1h0c.6-.9,1.8-1.5,3.3-1.5,2.6,0,4.5,2.1,4.4,5.4,0,3.9-2.5,5.8-4.9,5.8s-2.5-.5-3.2-1.7h0v1.5h-3ZM23.9,51.3c0,.2,0,.4,0,.6.2.9,1,1.6,2,1.6,1.4,0,2.3-1.1,2.3-3s-.7-3-2.3-3-1.7.7-2,1.7c0,.2,0,.4,0,.6v1.6Z"/>
    <path class="cls-6" d="M36.4,51.6c.1,1.4,1.5,2,3,2s2.1-.2,3-.4l.4,2.3c-1.1.4-2.4.7-3.9.7-3.7,0-5.7-2.1-5.7-5.5s1.7-5.7,5.4-5.7,4.8,2.7,4.8,5.4,0,1.1-.1,1.3h-6.9ZM40.3,49.3c0-.8-.4-2.2-1.9-2.2s-2,1.3-2.1,2.2h4Z"/>
    <path class="cls-6" d="M48,51.6c.1,1.4,1.5,2,3,2s2.1-.2,3-.4l.4,2.3c-1.1.4-2.4.7-3.9.7-3.7,0-5.7-2.1-5.7-5.5s1.7-5.7,5.4-5.7,4.8,2.7,4.8,5.4,0,1.1-.1,1.3h-6.9ZM51.9,49.3c0-.8-.4-2.2-1.9-2.2s-2,1.3-2.1,2.2h4Z"/>
    <path class="cls-6" d="M60.8,42.1v3.1h2.4v2.5h-2.4v3.9c0,1.3.3,1.9,1.3,1.9s.7,0,1,0v2.5c-.4.2-1.2.3-2.2.3s-2-.4-2.5-.9c-.6-.6-.9-1.7-.9-3.2v-4.4h-1.4v-2.5h1.4v-2.3l3.3-.7Z"/>
    <path class="cls-6" d="M65.1,40.3h3.3v6.1h0c.4-.5.8-.8,1.3-1.1.5-.3,1.1-.4,1.7-.4,2.1,0,3.8,1.5,3.8,4.7v6.3h-3.3v-5.9c0-1.4-.5-2.4-1.7-2.4s-1.4.6-1.7,1.2c0,.2-.1.5-.1.7v6.4h-3.3v-15.6Z"/>
    <path class="cls-6" d="M88.6,50.4c0,3.9-2.8,5.7-5.7,5.7s-5.6-2.1-5.6-5.5,2.3-5.7,5.7-5.7,5.5,2.3,5.5,5.5ZM80.9,50.5c0,1.8.8,3.2,2.2,3.2s2.1-1.3,2.1-3.2-.6-3.2-2.1-3.2-2.2,1.6-2.2,3.2Z"/>
    <path class="cls-6" d="M93,45.1l1.5,5c.3.9.5,1.8.6,2.6h0c.2-.9.4-1.7.6-2.6l1.4-5h3.5l-4,10.8h-3.3l-3.9-10.8h3.6Z"/>
    <path class="cls-6" d="M104.4,51.6c.1,1.4,1.5,2,3,2s2.1-.2,3-.4l.4,2.3c-1.1.4-2.4.7-3.9.7-3.7,0-5.7-2.1-5.7-5.5s1.7-5.7,5.4-5.7,4.8,2.7,4.8,5.4,0,1.1-.1,1.3h-6.9ZM108.4,49.3c0-.8-.4-2.2-1.9-2.2s-2,1.3-2.1,2.2h4Z"/>
    <path class="cls-6" d="M113.5,48.6c0-1.3,0-2.5,0-3.4h2.9l.2,1.5h0c.4-.7,1.5-1.7,3.3-1.7s3.9,1.5,3.9,4.6v6.4h-3.3v-6c0-1.4-.5-2.3-1.7-2.3s-1.5.6-1.7,1.3c0,.2-.1.5-.1.8v6.2h-3.3v-7.3Z"/>
  </g>
</svg>