<?xml version="1.0" encoding="UTF-8"?>
<svg id="Layer_1" data-name="Layer 1" xmlns="http://www.w3.org/2000/svg" xmlns:xlink="http://www.w3.org/1999/xlink" version="1.1" viewBox="0 0 169.7 172.5">
  <defs>
    <style>
      .cls-1 {
        clip-path: url(#clippath);
      }

      .cls-2, .cls-3 {
        fill: none;
      }

      .cls-2, .cls-4, .cls-5, .cls-6, .cls-7, .cls-8, .cls-9, .cls-10, .cls-11, .cls-12, .cls-13 {
        stroke-width: 0px;
      }

      .cls-3 {
        display: none;
        stroke: #ed1c24;
        stroke-miterlimit: 10;
        stroke-width: .2px;
      }

      .cls-14 {
        clip-path: url(#clippath-1);
      }

      .cls-15 {
        clip-path: url(#clippath-2);
      }

      .cls-4 {
        fill: #000;
      }

      .cls-5 {
        fill: #304377;
      }

      .cls-6 {
        fill: #231f20;
      }

      .cls-7 {
        fill: #9f270e;
      }

      .cls-8 {
        fill: #c7a86a;
      }

      .cls-9 {
        fill: #a18d5d;
      }

      .cls-16 {
        opacity: .5;
      }

      .cls-10 {
        fill: #e0ca8b;
      }

      .cls-17 {
        opacity: .8;
      }

      .cls-18 {
        opacity: .8;
      }

      .cls-19 {
        opacity: .7;
      }

      .cls-11 {
        fill: #00a9e3;
      }

      .cls-12 {
        fill: #ef4023;
      }

      .cls-13 {
        fill: #fff;
      }
    </style>
    <clipPath id="clippath">
      <path class="cls-2" d="M84.8,84.4L21.2,49.1,84.9,12.7l63.8,36.4-63.9,35.4Z"/>
    </clipPath>
    <clipPath id="clippath-1">
      <path class="cls-2" d="M84.8,84.5l63.7-35.4v74.7l-63.8,35.8v-75.2Z"/>
    </clipPath>
    <clipPath id="clippath-2">
      <path class="cls-2" d="M84.7,84.5l.2,75.2-63.8-35.8V49.1l63.6,35.4Z"/>
    </clipPath>
  </defs>
  <line class="cls-2" x1="21.3" y1="-7387.4" x2="21.3" y2="8995.6"/>
  <line class="cls-2" x1="-8106.2" y1="123.9" x2="8276.8" y2="123.9"/>
  <polygon id="Keyline" class="cls-3" points="148.6 123.7 84.9 159.6 21.2 123.7 21.2 49.1 84.9 12.9 148.6 49.1 148.6 123.7"/>
  <path class="cls-8" d="M84.8,159.6l-63.6-35.9V49.1l63.6,35.3,63.7-35.3v74.6l-63.7,35.9Z"/>
  <path class="cls-9" d="M84.8,159.7v-75.3s63.9-35.4,63.9-35.4v74.7l-63.9,35.9Z"/>
  <path class="cls-10" d="M84.8,84.4L21.2,49.1,85,12.8l63.7,36.2-63.9,35.4Z"/>
  <g class="cls-1">
    <g>
      <path class="cls-6" d="M30.3,54c.5-.6,1.5-1.3,2.7-2,1.5-.9,2.9-1.4,4.6-1.3,1.4,0,2.8.5,4.3,1.3,2.1,1.2,2.6,2.5,2.2,3.4h0c1.2-.1,2.6.2,4.4.9,2.2.8,4.6,1.9,5.4,2.1l-2.3,1.5c-.6-.2-2.2-.8-4.5-1.7-2.3-1-3.3-1-4.3-.5l-.7.4,6.4,3.6-2.3,1.4-16.1-9ZM39.6,56.5l.9-.6c1.1-.7.9-1.6-.5-2.4-1.5-.8-2.9-.9-4-.2-.6.3-.8.6-.9.7l4.5,2.5Z"/>
      <path class="cls-6" d="M63,51.8c-.3.7-1.1,1.8-2.5,2.7-1.9,1.2-3.9,1.6-6.3,1.3-2.3-.2-5-1.1-7.4-2.5-5.4-3-6.1-6.3-2.7-8.3,1.3-.8,2.7-1.2,3.6-1.3l2.5,1.9c-.9.1-2,.4-3.1,1.1-1.9,1.2-1.6,3.1,1.9,5,3.4,1.9,6.7,2.2,8.5,1,.5-.3.9-.7.9-.9l-3.4-1.9-1.6,1-2.9-1.6,3.8-2.4,8.6,4.8Z"/>
      <path class="cls-6" d="M72.5,46c0,.5-.7,1.3-1.9,2.1-3.5,2.3-8.8,1.4-13.5-1.2-5.6-3.1-6.2-6.4-3.1-8.3,1.2-.8,2.5-1.1,3.2-1.2l2.5,1.9c-.8.1-1.7.4-2.5.9-1.8,1.2-1.5,3.1,2.2,5.1,3.3,1.8,6.5,2.2,8.6.9.7-.4,1.2-1.1,1.4-1.5l3.2,1.4Z"/>
      <path class="cls-6" d="M72.8,41.3l3.5,2.8-2.4,1.6-13.2-11.1,3-2,19.5,7-2.5,1.6-5-1.8-2.9,1.9ZM72.6,38l-4.1-1.5c-1.1-.4-2.5-1-3.7-1.4h0c.8.7,1.9,1.4,2.7,2.1l2.9,2.3,2.2-1.5Z"/>
    </g>
    <g>
      <path class="cls-13" d="M99.7,20.5l-1.6,1c-.2.2-5.7,3.9-10,9.8-3.5,4.8-5.3,9.8-5.3,14.5-.8,1.2-1.4,2.3-2,3.3-3.6,6.4-5.3,12.3-5.1,17.6.1,3.3,1.1,6.4,2.7,9-2,1.8-3.6,2.9-3.7,2.9l-1.9,1.2,4,2.5.7-.4h.3c0,.1,1.7-1.2,1.7-1.2,0,0,.7-.5,1.8-1.5.7.6,1.2.9,1.2,1l1.5,1,4.9-3.1-1.5-1s-.8-.5-1.8-1.7c.2-.2.4-.4.6-.5,4.4-4,10.2-9.9,13-15.2,1.8-3.4,2.2-6.5,2.6-9.8.7-5.9,1.5-12.6,11.9-22.4l1.5-1.5-4.9-1.8-1.6,1.5c-11.5,10.8-12.3,18.1-13.1,24.6-.4,3-.7,5.9-2.3,8.7-.2.3-.4.7-.6,1,0-2.6-.6-5.2-1.9-7.7-1.1-2.2-1.7-4.4-1.9-6.7,4.3-6.4,10.4-13.2,18.1-20.3l1.9-1.7-9.3-3.4ZM84.6,53.9c0,.2.2.4.3.6,3.3,6.5.9,12.4-2,16.4-.6-1.6-.9-3.3-1-5-.1-3.6.8-7.7,2.7-12Z"/>
      <path class="cls-4" d="M103.9,23.9c-10,9.1-17.3,17.7-21.7,25.5-3.5,6.3-5.2,12.1-5,17.3.4,8.9,6.3,12.8,6.6,13l.6.4,2.5-1.6-.5-.4c0,0-5.5-3.7-5.9-11.9-.6-13.9,13.6-29.9,25.6-40.9l1-.9-2.5-.9-.5.5Z"/>
      <path class="cls-11" d="M110.6,25.9l-.5.5c-11.2,10.6-12.1,17.7-12.8,24.1-.4,3.1-.7,6-2.3,9-4.8,8.9-18.6,19.7-18.8,19.8l-.6.5,2.3,1.1.6-.5c.1,0,3-2.4,6.7-5.7,4.3-3.9,10-9.7,12.8-14.9,1.8-3.3,2.1-6.3,2.5-9.6.7-6,1.6-12.9,12.2-22.9l.5-.5-2.6-.9Z"/>
      <path class="cls-12" d="M99.2,22.1c-.2.2-5.5,3.7-9.7,9.5-3.9,5.3-7.6,13.5-3.1,22.4,3.7,7.2.6,13.7-2.7,17.8-3.5,4.5-8,7.4-8,7.4l-.7.4,2,1.3.7-.4c.2-.1,2.2-1.4,4.6-3.6s3-2.9,4.2-4.5c3.5-4.6,6.9-11.6,2.9-19.4-4.2-8.3-.8-15.9,2.8-20.9,3.9-5.4,8.9-8.8,9-8.9l.7-.4-2.1-1.2-.7.4Z"/>
    </g>
  </g>
  <g class="cls-14">
    <g class="cls-16">
      <path class="cls-13" d="M135.6,133.3v-1.8c-.1-.3-.7-6.4-3.9-13-2.5-5.3-6.2-9.6-10.5-12.3-.7-1.2-1.3-2.4-2-3.4-4-6.4-8.6-11.1-13.5-14-3.2-1.8-6.4-3-9.7-3.3-.6-2.5-.7-4.3-.7-4.3l-.4-2.4-4.4,2.5.3,2.2s.1.8.4,2.2c-.9.1-1.4.3-1.5.3l-1.7.5.3,5.3,1.7-.5s.9-.3,2.5-.3c0,.2.1.5.2.8,1.4,5.5,3.7,13.1,7.1,18.3,2.2,3.3,4.8,5.4,7.7,7.6,5.1,4,10.8,8.5,14.4,21.7l.5,2,4.3-2.5-.6-2.1c-4-14.6-10.2-19.5-15.7-23.9-2.6-2-5-4-6.9-6.7-.2-.3-.4-.7-.6-1,2.4,1.6,5.1,2.6,8,3.1,2.6.5,5,1.3,7.1,2.6,3.6,6.8,6.7,15.2,9.2,25l.6,2.4,8.1-4.7ZM112.8,102.8c-.2,0-.5-.1-.7-.1-7.7-1.4-11.8-6.6-14-11,1.7.5,3.5,1.3,5.1,2.2,3.4,2,6.6,5,9.6,8.9Z"/>
      <path class="cls-4" d="M130.3,134.3c-3.1-12.6-7.2-22.9-12-30.6-3.9-6.2-8.4-10.9-13.3-13.7-8.4-4.9-15.1-2.9-15.4-2.8l-.6.2v2.7c.1,0,.8-.2.8-.2,0,0,6.3-1.8,14,2.7,13.1,7.7,20.4,27.3,24.2,42.4l.3,1.2,2.2-1.3-.2-.7Z"/>
      <path class="cls-5" d="M125,138l-.2-.7c-3.9-14.3-10-19.1-15.4-23.4-2.7-2.1-5.2-4.1-7.1-7-5.6-8.6-8.3-25-8.4-25.2l-.4-2.4-2.2,1.2.4,2.3c0,.1.6,3.6,1.8,8.2,1.4,5.4,3.7,12.9,7,18,2.1,3.2,4.7,5.2,7.5,7.4,5.2,4.1,11,8.7,14.7,22.2l.2.7,2.2-1.3Z"/>
      <path class="cls-7" d="M134.4,131.9c0-.2-.6-6.1-3.7-12.6-2.8-5.9-8.4-13.4-19-15.3-8.5-1.5-13-7.5-15-12.4s-2.2-7.2-2.4-7.9c-.4-1.4-.7-4.4-.7-4.4l-2.2,1.2.3,1.7c0,.2.3,2.3,1.1,5.3s1.1,3.9,1.9,5.6c2.3,5.2,7.1,11.8,16.3,13.5,9.8,1.8,15.1,8.7,17.7,14.3,2.9,6,3.4,11.6,3.4,11.7v.7c0,0,2.3-.8,2.3-.8v-.7Z"/>
    </g>
    <g class="cls-18">
      <path class="cls-6" d="M142.5,52.3c.2.9.3,2.3.3,4,0,2-.4,3.7-1.3,5.1-.7,1.2-1.8,2.3-3.3,3.1-2,1.1-3.3.6-3.8-.3h0c-.4,1.2-1.5,2.4-2.9,3.5-1.7,1.4-3.7,3-4.3,3.6v-3.2c.4-.5,1.7-1.5,3.6-3,1.9-1.5,2.5-2.3,2.5-3.6v-.9s-6.1,3.4-6.1,3.4v-3.1s15.3-8.6,15.3-8.6ZM135.7,59.1v1.2c0,1.5.9,2,2.2,1.2,1.4-.8,2.1-2.1,2.2-3.5,0-.8,0-1.1-.1-1.3l-4.3,2.4Z"/>
      <path class="cls-6" d="M127.9,84c-.4-.8-.9-2.3-.9-4.1,0-2.5.7-4.7,2.1-6.8,1.3-2,3.3-3.8,5.6-5.1,5.1-2.9,8.1-1.2,8,3.3,0,1.8-.4,3.4-.8,4.2l-2.8.9c.4-1,.7-2.1.7-3.6,0-2.6-1.6-3.6-5-1.7-3.2,1.8-5,4.6-5,7.2,0,.7,0,1.2.2,1.4l3.2-1.8v-2.1s2.7-1.5,2.7-1.5v5.1s-8.1,4.6-8.1,4.6Z"/>
      <path class="cls-6" d="M127.6,96.7c-.3-.4-.7-1.5-.7-3.2,0-4.8,3.3-9.1,7.6-11.5,5.2-3,8.1-1.3,8.1,2.9,0,1.6-.4,3-.7,3.8l-2.7.9c.3-.8.6-1.8.6-2.9,0-2.5-1.6-3.4-5-1.5-3.1,1.7-5,4.5-5,7.2,0,.9.2,1.8.5,2.3l-2.7,2Z"/>
      <path class="cls-6" d="M131.1,100.1l-3.9,1.3v-3.2s15.2-4.5,15.2-4.5v4.1s-15.1,13-15.1,13v-3.3s3.9-3.3,3.9-3.3v-3.9ZM133.7,102.1l3.2-2.7c.9-.8,2-1.7,2.9-2.4h0c-.9.3-2,.7-2.9,1l-3.2,1v3Z"/>
    </g>
  </g>
  <g class="cls-15">
    <g class="cls-17">
      <path class="cls-6" d="M85,148.9c-.8-.2-1.9-.8-3.1-1.5-1.5-.9-2.6-2-3.4-3.5-.6-1.3-1-2.8-1-4.5,0-2.4.9-3.4,1.8-3.5h0c-.7-1-1.1-2.5-1.4-4.4-.3-2.3-.6-4.9-.8-5.8l2.4,1.5c.2.6.4,2.3.7,4.8.3,2.5.7,3.4,1.7,4l.7.4v-7.4s2.3,1.4,2.3,1.4v18.4ZM82.7,139.5l-.9-.6c-1.2-.7-1.9,0-1.9,1.6,0,1.7.7,3,1.8,3.6.6.3.9.5,1.1.5v-5.1Z"/>
      <path class="cls-6" d="M67,120.6c.7,0,2.1.2,3.5,1,1.9,1.1,3.3,2.8,4.3,5.1,1,2.2,1.5,4.9,1.5,7.7,0,6.2-2.5,8.2-5.9,6.2-1.4-.8-2.4-1.9-2.9-2.6l.5-3.1c.6.8,1.3,1.6,2.5,2.2,2,1.2,3.5,0,3.4-4,0-3.9-1.4-6.9-3.3-8.1-.5-.3-1-.5-1.2-.4v3.9s1.6,1,1.6,1v3.3s-3.9-2.3-3.9-2.3v-9.9Z"/>
      <path class="cls-6" d="M57.3,114.7c.4-.1,1.5,0,2.8.8,3.7,2.1,5.6,7.3,5.6,12.6,0,6.4-2.5,8.4-5.7,6.5-1.3-.7-2.2-1.7-2.7-2.3l.5-3.1c.5.6,1.2,1.4,2,1.9,1.9,1.1,3.4,0,3.4-4.2,0-3.7-1.3-6.8-3.4-8.1-.7-.4-1.5-.6-2-.5l-.4-3.5Z"/>
      <path class="cls-6" d="M53,116.6l.8-4.4,2.5,1.4-3.2,16.8-3.2-1.8-3.5-20.5,2.7,1.5.8,5.3,3.1,1.7ZM50.3,118.2l.7,4.3c.2,1.2.4,2.7.6,3.9h0c.1-1,.3-2.3.5-3.3l.6-3.6-2.4-1.3Z"/>
    </g>
    <g class="cls-19">
      <g>
        <path class="cls-13" d="M14.7,103l1.6,1c.2.1,5.8,3.6,13.3,4.9,6,1.1,11.8.4,16.7-1.9,1.5.2,2.8.3,4.1.3,7.8.4,14.5-.9,20-3.7,3.5-1.8,6.4-4.2,8.6-7,2.5,1.1,4.1,2.1,4.1,2.1l1.8,1.2,1.5-5.1-.6-.4v-.3c0,0-1.8-1-1.8-1,0,0-.8-.4-2.1-1.1.4-1,.6-1.6.6-1.7l.6-2.8-4.7-2.4-.6,1.9s-.3,1-1.2,2.5c-.2-.1-.5-.2-.7-.3-5.2-2.5-12.3-5.3-19.7-5.2s-7.5,1-11,2.3c-6.4,2.2-13.6,4.7-26.9-.6l-2-.8-.4,5.7,2.1.8c14.7,5.8,22.6,3.1,29.6.7,3.3-1.1,6.4-2.2,9.8-2.1.4,0,.8,0,1.3,0-2.8,1.2-5.3,3.1-7.5,5.6-1.9,2.1-4.1,3.8-6.5,5.1-7.9-1-16.9-3.6-26.6-7.6l-2.3-1-.8,10.7ZM54.1,101.3c.2-.2.4-.4.6-.6,5.8-6.4,12.7-6.9,17.7-6.1-1.5,1.3-3.1,2.5-5,3.4-3.8,1.9-8.2,3-13.3,3.3Z"/>
        <path class="cls-4" d="M17,97.3c12.5,5.2,23.6,8.1,33.1,8.6,7.6.4,14.2-.9,19.5-3.6,9.2-4.7,11.5-12.4,11.6-12.7l.2-.9-2.4-1.4-.2.7c0,0-2.3,7.2-10.8,11.5-14.4,7.3-35.3,1.5-50.3-4.8l-1.2-.5-.2,2.9.7.3Z"/>
        <path class="cls-11" d="M17.1,89.9l.7.3c14.4,5.7,22.1,3,29,.6,3.4-1.1,6.5-2.2,10.1-2.1,10.7.3,26.1,8.4,26.3,8.5l.7.4.5-2.8-.7-.4c-.1,0-3.4-1.8-8-3.7s-13.1-4.9-19.3-5.1c-3.9-.1-7.2,1-10.7,2.2-6.5,2.2-14,4.8-27.6-.6l-.7-.3-.2,2.9Z"/>
        <path class="cls-12" d="M16.5,102.7c.2.1,5.5,3.4,12.8,4.7,6.7,1.2,16.4.7,24.4-8,6.4-7.1,14.1-7.2,19.5-6.1,5.8,1.2,10.1,4.1,10.2,4.1l1.7,1.1v-3.1c.1,0,0-.3,0-.3-.2-.1-3.1-1.8-6.1-3s-4-1.4-5.9-1.8c-5.8-1.2-14.2-1-21.2,6.6-7.4,8.1-16.4,8.5-22.7,7.5-6.8-1.2-11.9-4.3-11.9-4.4l-.7-.4-.7,2.7.7.4Z"/>
      </g>
    </g>
  </g>
</svg>